<?xml version="1.0" encoding="utf-8"?>
<!-- Generator: Adobe Illustrator 16.0.0, SVG Export Plug-In . SVG Version: 6.00 Build 0)  -->
<!DOCTYPE svg PUBLIC "-//W3C//DTD SVG 1.1//EN" "http://www.w3.org/Graphics/SVG/1.1/DTD/svg11.dtd">
<svg version="1.1" id="Ñëîé_1" xmlns="http://www.w3.org/2000/svg" xmlns:xlink="http://www.w3.org/1999/xlink" x="0px" y="0px"
	 width="779.1px" height="315.5px" viewBox="0 0 779.1 315.5" style="enable-background:new 0 0 779.1 315.5;" xml:space="preserve"
	>
<rect x="-606.2" y="721.1" style="fill:#1D1D1D;" width="2000" height="1096"/>
<rect x="-2147.2" y="-1148.9" style="fill:#D31F44;" width="2000" height="1096"/>
<g>
	<g>
		<g>
			<path style="fill:#FFFFFF;" d="M92.8,86.1c-42.5,0-77,34.5-77,77c0,42.5,34.5,77,77,77s77-34.5,77-77
				C169.8,120.6,135.4,86.1,92.8,86.1z M92.8,195.1c-17.7,0-32-14.3-32-32c0-17.7,14.3-32,32-32s32,14.3,32,32
				C124.8,180.8,110.5,195.1,92.8,195.1z"/>
		</g>
	</g>
	<path style="fill:#FFFFFF;" d="M187,96c0,0,30.5,0.8,31.9,0.8s51.5,63.3,51.5,63.3l0.2-30V96h39.9v137.1l-34.9,0.3l-47.7-58.8V233
		l-40.9,0.2V96z"/>
	<path style="fill:#FFFFFF;" d="M517,96c0,0,30.5,0.8,31.9,0.8c1.3,0,51.5,63.3,51.5,63.3l0.2-30V96h39.9v137.1l-34.9,0.3
		l-47.7-58.8V233l-40.9,0.2V96z"/>
	<path style="fill:#FFFFFF;" d="M332.5,96h42.2v102h60.7v35.1H332.5V96z"/>
	<path style="fill:#FFFFFF;" d="M453.5,96h42.2v137.1h-42.2V96z"/>
	<path style="fill:#FFFFFF;" d="M663.1,96h113.5v35.1h-71.2v17.1h64.7v32.6h-64.7V198h73.3v35.1H663.1V96z"/>
	
		<rect x="1.4" y="30.3" transform="matrix(0.8714 -0.4906 0.4906 0.8714 -16.1157 40.1798)" style="fill:#FFFFFF;" width="134.3" height="41.1"/>
	<g>
		<path style="fill:#EFEFEF;" d="M28.6,277.6h23.6v3h-20V294h17.8v3H32.1v17.7h-3.5V277.6z"/>
		<path style="fill:#EFEFEF;" d="M139.6,276.8c11.6,0,17.5,9.2,17.5,19.3c0,10.1-5.8,19.3-17.5,19.3c-11.7,0-17.5-9.2-17.5-19.3
			C122.1,286,127.9,276.8,139.6,276.8z M139.6,312.5c9.8,0,13.9-8.2,13.9-16.3s-4.2-16.3-13.9-16.3c-9.8,0-14,8.2-14,16.3
			S129.8,312.5,139.6,312.5z"/>
		<path style="fill:#EFEFEF;" d="M230.1,277.6h17c6.1,0,11.3,3,11.3,9.7c0,4.7-2.4,8.5-7.2,9.5v0.1c4.8,0.6,6.2,4,6.5,8.4
			c0.2,2.5,0.2,7.6,1.7,9.5h-3.9c-0.9-1.5-0.9-4.2-1-5.8c-0.3-5.2-0.7-11-7.4-10.7h-13.4v16.5h-3.5V277.6z M233.7,295.2h13.2
			c4.3,0,8-2.7,8-7.2c0-4.5-2.7-7.4-8-7.4h-13.2V295.2z"/>
		<path style="fill:#EFEFEF;" d="M332.3,277.6h5.2l12.8,32.6l12.8-32.6h5.2v37.1h-3.5v-32.1h-0.1L352,314.7h-3.3l-12.7-32.1h-0.1
			v32.1h-3.5V277.6z"/>
		<path style="fill:#EFEFEF;" d="M454.1,277.6h4l14.6,37.1h-3.8l-4.5-11.5h-16.9l-4.5,11.5h-3.8L454.1,277.6z M448.5,300.2h14.6
			l-7.2-19L448.5,300.2z"/>
		<path style="fill:#EFEFEF;" d="M543.5,277.6H560c6.7,0,11,3.9,11,10.6c0,6.7-4.4,10.6-11,10.6h-12.9v15.9h-3.5V277.6z
			 M547.1,295.8h12.2c4.9,0,8.3-2.5,8.3-7.6c0-5.1-3.4-7.6-8.3-7.6h-12.2V295.8z"/>
		<path style="fill:#EFEFEF;" d="M643.8,277.6h17c6.1,0,11.3,3,11.3,9.7c0,4.7-2.4,8.5-7.2,9.5v0.1c4.8,0.6,6.2,4,6.5,8.4
			c0.2,2.5,0.2,7.6,1.7,9.5h-3.9c-0.9-1.5-0.9-4.2-1-5.8c-0.3-5.2-0.7-11-7.4-10.7h-13.4v16.5h-3.5V277.6z M647.4,295.2h13.2
			c4.3,0,8-2.7,8-7.2c0-4.5-2.7-7.4-8-7.4h-13.2V295.2z"/>
		<path style="fill:#EFEFEF;" d="M761.6,276.8c11.6,0,17.5,9.2,17.5,19.3c0,10.1-5.8,19.3-17.5,19.3c-11.7,0-17.5-9.2-17.5-19.3
			C744.1,286,749.9,276.8,761.6,276.8z M761.6,312.5c9.8,0,13.9-8.2,13.9-16.3s-4.2-16.3-13.9-16.3c-9.8,0-14,8.2-14,16.3
			S751.8,312.5,761.6,312.5z"/>
	</g>
</g>
<rect x="1588.7" y="-364.3" style="fill:#3E2986;" width="2000" height="1096"/>
<g>
	<path style="fill:#FFFFFF;" d="M2296,112.1c-42.5,0-77,34.5-77,77c0,42.5,34.5,77,77,77c42.5,0,77-34.5,77-77
		C2373,146.6,2338.5,112.1,2296,112.1z M2296,221.1c-17.7,0-32-14.3-32-32c0-17.7,14.3-32,32-32s32,14.3,32,32
		C2328,206.8,2313.6,221.1,2296,221.1z"/>
	<path style="fill:#FFFFFF;" d="M2390.1,122c0,0,30.5,0.8,31.9,0.8c1.3,0,51.5,63.3,51.5,63.3l0.2-30V122h39.9v137.1l-34.9,0.3
		l-47.7-58.8v58.3l-40.9,0.2V122z"/>
	<path style="fill:#FFFFFF;" d="M2720.1,122c0,0,30.5,0.8,31.9,0.8c1.3,0,51.5,63.3,51.5,63.3l0.2-30V122h39.9v137.1l-34.9,0.3
		l-47.7-58.8v58.3l-40.9,0.2V122z"/>
	<path style="fill:#FFFFFF;" d="M2535.6,122h42.2v102h60.7v35.1h-102.9V122z"/>
	<path style="fill:#FFFFFF;" d="M2656.6,122h42.2v137.1h-42.2V122z"/>
	<path style="fill:#FFFFFF;" d="M2866.3,122h113.5v35.1h-71.2v17.1h64.7v32.6h-64.7V224h73.3v35.1h-115.6V122z"/>
	
		<rect x="2204.6" y="56.3" transform="matrix(0.8714 -0.4906 0.4906 0.8714 254.4512 1124.2847)" style="fill:#FFFFFF;" width="134.3" height="41.1"/>
	<g>
		<path style="fill:#EFEFEF;" d="M2231.7,303.6h23.6v3h-20V320h17.8v3h-17.8v17.7h-3.5V303.6z"/>
		<path style="fill:#EFEFEF;" d="M2342.7,302.8c11.6,0,17.5,9.2,17.5,19.3c0,10.1-5.8,19.3-17.5,19.3c-11.7,0-17.5-9.2-17.5-19.3
			C2325.2,312,2331,302.8,2342.7,302.8z M2342.7,338.5c9.8,0,13.9-8.2,13.9-16.3c0-8.1-4.2-16.3-13.9-16.3c-9.8,0-14,8.2-14,16.3
			C2328.7,330.2,2332.9,338.5,2342.7,338.5z"/>
		<path style="fill:#EFEFEF;" d="M2433.3,303.6h17c6.1,0,11.3,3,11.3,9.7c0,4.7-2.4,8.5-7.2,9.5v0.1c4.8,0.6,6.2,4,6.5,8.4
			c0.2,2.5,0.2,7.6,1.7,9.5h-3.9c-0.9-1.5-0.9-4.2-1-5.8c-0.3-5.2-0.7-11-7.4-10.7h-13.4v16.5h-3.5V303.6z M2436.8,321.2h13.2
			c4.3,0,8-2.7,8-7.2c0-4.5-2.7-7.4-8-7.4h-13.2V321.2z"/>
		<path style="fill:#EFEFEF;" d="M2535.4,303.6h5.2l12.8,32.6l12.8-32.6h5.2v37.1h-3.5v-32.1h-0.1l-12.7,32.1h-3.3l-12.7-32.1h-0.1
			v32.1h-3.5V303.6z"/>
		<path style="fill:#EFEFEF;" d="M2657.2,303.6h4l14.6,37.1h-3.8l-4.5-11.5h-16.9l-4.5,11.5h-3.8L2657.2,303.6z M2651.6,326.1h14.6
			l-7.2-19L2651.6,326.1z"/>
		<path style="fill:#EFEFEF;" d="M2746.7,303.6h16.5c6.7,0,11,3.9,11,10.6c0,6.7-4.4,10.6-11,10.6h-12.9v15.9h-3.5V303.6z
			 M2750.2,321.8h12.2c4.9,0,8.3-2.5,8.3-7.6c0-5.1-3.4-7.6-8.3-7.6h-12.2V321.8z"/>
		<path style="fill:#EFEFEF;" d="M2847,303.6h17c6.1,0,11.3,3,11.3,9.7c0,4.7-2.4,8.5-7.2,9.5v0.1c4.8,0.6,6.2,4,6.5,8.4
			c0.2,2.5,0.2,7.6,1.7,9.5h-3.9c-0.9-1.5-0.9-4.2-1-5.8c-0.3-5.2-0.7-11-7.4-10.7h-13.4v16.5h-3.5V303.6z M2850.5,321.2h13.2
			c4.3,0,8-2.7,8-7.2c0-4.5-2.7-7.4-8-7.4h-13.2V321.2z"/>
		<path style="fill:#EFEFEF;" d="M2964.8,302.8c11.6,0,17.5,9.2,17.5,19.3c0,10.1-5.8,19.3-17.5,19.3c-11.7,0-17.5-9.2-17.5-19.3
			C2947.2,312,2953.1,302.8,2964.8,302.8z M2964.8,338.5c9.8,0,13.9-8.2,13.9-16.3c0-8.1-4.2-16.3-13.9-16.3c-9.8,0-14,8.2-14,16.3
			C2950.8,330.2,2954.9,338.5,2964.8,338.5z"/>
	</g>
</g>
<rect x="1588.7" y="770.5" style="fill:#C6601C;" width="2000" height="1096"/>
<g>
	<path style="fill:#FFFFFF;" d="M2296,1235.9c-42.5,0-77,34.5-77,77s34.5,77,77,77c42.5,0,77-34.5,77-77S2338.5,1235.9,2296,1235.9z
		 M2296,1344.9c-17.7,0-32-14.3-32-32c0-17.7,14.3-32,32-32s32,14.3,32,32C2328,1330.5,2313.6,1344.9,2296,1344.9z"/>
	<path style="fill:#FFFFFF;" d="M2390.1,1245.8c0,0,30.5,0.8,31.9,0.8c1.3,0,51.5,63.3,51.5,63.3l0.2-30v-34.1h39.9v137.1l-34.9,0.3
		l-47.7-58.8v58.3l-40.9,0.2V1245.8z"/>
	<path style="fill:#FFFFFF;" d="M2720.1,1245.8c0,0,30.5,0.8,31.9,0.8c1.3,0,51.5,63.3,51.5,63.3l0.2-30v-34.1h39.9v137.1l-34.9,0.3
		l-47.7-58.8v58.3l-40.9,0.2V1245.8z"/>
	<path style="fill:#FFFFFF;" d="M2535.6,1245.8h42.2v102h60.7v35.1h-102.9V1245.8z"/>
	<path style="fill:#FFFFFF;" d="M2656.6,1245.8h42.2v137.1h-42.2V1245.8z"/>
	<path style="fill:#FFFFFF;" d="M2866.3,1245.8h113.5v35.1h-71.2v17.1h64.7v32.6h-64.7v17.1h73.3v35.1h-115.6V1245.8z"/>
	
		<rect x="2204.6" y="1180" transform="matrix(0.8714 -0.4906 0.4906 0.8714 -296.8271 1268.8016)" style="fill:#FFFFFF;" width="134.3" height="41.1"/>
	<g>
		<path style="fill:#EFEFEF;" d="M2231.7,1427.3h23.6v3h-20v13.4h17.8v3h-17.8v17.7h-3.5V1427.3z"/>
		<path style="fill:#EFEFEF;" d="M2342.7,1426.6c11.6,0,17.5,9.2,17.5,19.3c0,10.1-5.8,19.3-17.5,19.3c-11.7,0-17.5-9.2-17.5-19.3
			C2325.2,1435.8,2331,1426.6,2342.7,1426.6z M2342.7,1462.2c9.8,0,13.9-8.2,13.9-16.3s-4.2-16.3-13.9-16.3c-9.8,0-14,8.2-14,16.3
			S2332.9,1462.2,2342.7,1462.2z"/>
		<path style="fill:#EFEFEF;" d="M2433.3,1427.3h17c6.1,0,11.3,3,11.3,9.7c0,4.7-2.4,8.5-7.2,9.5v0.1c4.8,0.6,6.2,4,6.5,8.4
			c0.2,2.5,0.2,7.6,1.7,9.5h-3.9c-0.9-1.5-0.9-4.2-1-5.8c-0.3-5.2-0.7-11-7.4-10.7h-13.4v16.5h-3.5V1427.3z M2436.8,1445h13.2
			c4.3,0,8-2.7,8-7.2c0-4.5-2.7-7.4-8-7.4h-13.2V1445z"/>
		<path style="fill:#EFEFEF;" d="M2535.4,1427.3h5.2l12.8,32.6l12.8-32.6h5.2v37.1h-3.5v-32.1h-0.1l-12.7,32.1h-3.3l-12.7-32.1h-0.1
			v32.1h-3.5V1427.3z"/>
		<path style="fill:#EFEFEF;" d="M2657.2,1427.3h4l14.6,37.1h-3.8l-4.5-11.5h-16.9l-4.5,11.5h-3.8L2657.2,1427.3z M2651.6,1449.9
			h14.6l-7.2-19L2651.6,1449.9z"/>
		<path style="fill:#EFEFEF;" d="M2746.7,1427.3h16.5c6.7,0,11,3.9,11,10.6c0,6.7-4.4,10.6-11,10.6h-12.9v15.9h-3.5V1427.3z
			 M2750.2,1445.5h12.2c4.9,0,8.3-2.5,8.3-7.6c0-5.1-3.4-7.6-8.3-7.6h-12.2V1445.5z"/>
		<path style="fill:#EFEFEF;" d="M2847,1427.3h17c6.1,0,11.3,3,11.3,9.7c0,4.7-2.4,8.5-7.2,9.5v0.1c4.8,0.6,6.2,4,6.5,8.4
			c0.2,2.5,0.2,7.6,1.7,9.5h-3.9c-0.9-1.5-0.9-4.2-1-5.8c-0.3-5.2-0.7-11-7.4-10.7h-13.4v16.5h-3.5V1427.3z M2850.5,1445h13.2
			c4.3,0,8-2.7,8-7.2c0-4.5-2.7-7.4-8-7.4h-13.2V1445z"/>
		<path style="fill:#EFEFEF;" d="M2964.8,1426.6c11.6,0,17.5,9.2,17.5,19.3c0,10.1-5.8,19.3-17.5,19.3c-11.7,0-17.5-9.2-17.5-19.3
			C2947.2,1435.8,2953.1,1426.6,2964.8,1426.6z M2964.8,1462.2c9.8,0,13.9-8.2,13.9-16.3s-4.2-16.3-13.9-16.3c-9.8,0-14,8.2-14,16.3
			S2954.9,1462.2,2964.8,1462.2z"/>
	</g>
</g>
<rect x="1588.7" y="1904.3" style="fill:#1F6FA0;" width="2000" height="1096"/>
<g>
	<path style="fill:#FFFFFF;" d="M2296,2359.4c-42.5,0-77,34.5-77,77s34.5,77,77,77c42.5,0,77-34.5,77-77S2338.5,2359.4,2296,2359.4z
		 M2296,2468.4c-17.7,0-32-14.3-32-32c0-17.7,14.3-32,32-32s32,14.3,32,32C2328,2454.1,2313.6,2468.4,2296,2468.4z"/>
	<path style="fill:#FFFFFF;" d="M2390.1,2369.3c0,0,30.5,0.8,31.9,0.8c1.3,0,51.5,63.3,51.5,63.3l0.2-30v-34.1h39.9v137.1l-34.9,0.3
		L2431,2448v58.3l-40.9,0.2V2369.3z"/>
	<path style="fill:#FFFFFF;" d="M2720.1,2369.3c0,0,30.5,0.8,31.9,0.8c1.3,0,51.5,63.3,51.5,63.3l0.2-30v-34.1h39.9v137.1l-34.9,0.3
		L2761,2448v58.3l-40.9,0.2V2369.3z"/>
	<path style="fill:#FFFFFF;" d="M2535.6,2369.3h42.2v102h60.7v35.1h-102.9V2369.3z"/>
	<path style="fill:#FFFFFF;" d="M2656.6,2369.3h42.2v137.1h-42.2V2369.3z"/>
	<path style="fill:#FFFFFF;" d="M2866.3,2369.3h113.5v35.1h-71.2v17.1h64.7v32.6h-64.7v17.1h73.3v35.1h-115.6V2369.3z"/>
	
		<rect x="2204.6" y="2303.6" transform="matrix(0.8714 -0.4906 0.4906 0.8714 -847.9805 1413.2786)" style="fill:#FFFFFF;" width="134.3" height="41.1"/>
	<g>
		<path style="fill:#EFEFEF;" d="M2231.7,2550.8h23.6v3h-20v13.4h17.8v3h-17.8v17.7h-3.5V2550.8z"/>
		<path style="fill:#EFEFEF;" d="M2342.7,2550.1c11.6,0,17.5,9.2,17.5,19.3s-5.8,19.3-17.5,19.3c-11.7,0-17.5-9.2-17.5-19.3
			S2331,2550.1,2342.7,2550.1z M2342.7,2585.7c9.8,0,13.9-8.2,13.9-16.3c0-8.1-4.2-16.3-13.9-16.3c-9.8,0-14,8.2-14,16.3
			C2328.7,2577.5,2332.9,2585.7,2342.7,2585.7z"/>
		<path style="fill:#EFEFEF;" d="M2433.3,2550.8h17c6.1,0,11.3,3,11.3,9.7c0,4.7-2.4,8.5-7.2,9.5v0.1c4.8,0.6,6.2,4,6.5,8.4
			c0.2,2.5,0.2,7.6,1.7,9.5h-3.9c-0.9-1.5-0.9-4.2-1-5.8c-0.3-5.2-0.7-11-7.4-10.7h-13.4v16.5h-3.5V2550.8z M2436.8,2568.5h13.2
			c4.3,0,8-2.7,8-7.2s-2.7-7.4-8-7.4h-13.2V2568.5z"/>
		<path style="fill:#EFEFEF;" d="M2535.4,2550.8h5.2l12.8,32.6l12.8-32.6h5.2v37.1h-3.5v-32.1h-0.1l-12.7,32.1h-3.3l-12.7-32.1h-0.1
			v32.1h-3.5V2550.8z"/>
		<path style="fill:#EFEFEF;" d="M2657.2,2550.8h4l14.6,37.1h-3.8l-4.5-11.5h-16.9l-4.5,11.5h-3.8L2657.2,2550.8z M2651.6,2573.4
			h14.6l-7.2-19L2651.6,2573.4z"/>
		<path style="fill:#EFEFEF;" d="M2746.7,2550.8h16.5c6.7,0,11,3.9,11,10.6c0,6.7-4.4,10.6-11,10.6h-12.9v15.9h-3.5V2550.8z
			 M2750.2,2569h12.2c4.9,0,8.3-2.5,8.3-7.6c0-5.1-3.4-7.6-8.3-7.6h-12.2V2569z"/>
		<path style="fill:#EFEFEF;" d="M2847,2550.8h17c6.1,0,11.3,3,11.3,9.7c0,4.7-2.4,8.5-7.2,9.5v0.1c4.8,0.6,6.2,4,6.5,8.4
			c0.2,2.5,0.2,7.6,1.7,9.5h-3.9c-0.9-1.5-0.9-4.2-1-5.8c-0.3-5.2-0.7-11-7.4-10.7h-13.4v16.5h-3.5V2550.8z M2850.5,2568.5h13.2
			c4.3,0,8-2.7,8-7.2s-2.7-7.4-8-7.4h-13.2V2568.5z"/>
		<path style="fill:#EFEFEF;" d="M2964.8,2550.1c11.6,0,17.5,9.2,17.5,19.3s-5.8,19.3-17.5,19.3c-11.7,0-17.5-9.2-17.5-19.3
			S2953.1,2550.1,2964.8,2550.1z M2964.8,2585.7c9.8,0,13.9-8.2,13.9-16.3c0-8.1-4.2-16.3-13.9-16.3c-9.8,0-14,8.2-14,16.3
			C2950.8,2577.5,2954.9,2585.7,2964.8,2585.7z"/>
	</g>
</g>
<g>
	<path style="fill:#D21242;" d="M108.9,1181.7c-42.5,0-77,34.5-77,77s34.5,77,77,77s77-34.5,77-77S151.4,1181.7,108.9,1181.7z
		 M108.9,1290.7c-17.7,0-32-14.3-32-32c0-17.7,14.3-32,32-32c17.7,0,32,14.3,32,32C140.9,1276.3,126.6,1290.7,108.9,1290.7z"/>
	<path style="fill:#FFFFFF;" d="M203,1191.6c0,0,30.5,0.8,31.9,0.8s51.5,63.3,51.5,63.3l0.2-30v-34.1h39.9v137.1l-34.9,0.3
		l-47.7-58.8v58.3l-40.9,0.2V1191.6z"/>
	<path style="fill:#FFFFFF;" d="M533,1191.6c0,0,30.5,0.8,31.9,0.8c1.3,0,51.5,63.3,51.5,63.3l0.2-30v-34.1h39.9v137.1l-34.9,0.3
		l-47.7-58.8v58.3l-40.9,0.2V1191.6z"/>
	<path style="fill:#FFFFFF;" d="M348.6,1191.6h42.2v102h60.7v35.1H348.6V1191.6z"/>
	<path style="fill:#FFFFFF;" d="M469.5,1191.6h42.2v137.1h-42.2V1191.6z"/>
	<path style="fill:#FFFFFF;" d="M679.2,1191.6h113.5v35.1h-71.2v17.1h64.7v32.6h-64.7v17.1h73.3v35.1H679.2V1191.6z"/>
	
		<rect x="25.7" y="1125.8" transform="matrix(0.8714 -0.4906 0.4906 0.8714 -550.4249 192.9577)" style="fill:#D21242;" width="134.3" height="41.1"/>
	<g>
		<path style="fill:#EFEFEF;" d="M44.6,1373.1h23.6v3h-20v13.4h17.8v3H48.2v17.7h-3.5V1373.1z"/>
		<path style="fill:#EFEFEF;" d="M155.6,1372.3c11.6,0,17.5,9.2,17.5,19.3c0,10.1-5.8,19.3-17.5,19.3c-11.7,0-17.5-9.2-17.5-19.3
			C138.1,1381.5,143.9,1372.3,155.6,1372.3z M155.6,1408c9.8,0,13.9-8.2,13.9-16.3s-4.2-16.3-13.9-16.3c-9.8,0-14,8.2-14,16.3
			S145.8,1408,155.6,1408z"/>
		<path style="fill:#EFEFEF;" d="M246.2,1373.1h17c6.1,0,11.3,3,11.3,9.7c0,4.7-2.4,8.5-7.2,9.5v0.1c4.8,0.6,6.2,4,6.5,8.4
			c0.2,2.5,0.2,7.6,1.7,9.5h-3.9c-0.9-1.5-0.9-4.2-1-5.8c-0.3-5.2-0.7-11-7.4-10.7h-13.4v16.5h-3.5V1373.1z M249.7,1390.8h13.2
			c4.3,0,8-2.7,8-7.2c0-4.5-2.7-7.4-8-7.4h-13.2V1390.8z"/>
		<path style="fill:#EFEFEF;" d="M348.3,1373.1h5.2l12.8,32.6l12.8-32.6h5.2v37.1h-3.5v-32.1h-0.1l-12.7,32.1h-3.3l-12.7-32.1h-0.1
			v32.1h-3.5V1373.1z"/>
		<path style="fill:#EFEFEF;" d="M470.1,1373.1h4l14.6,37.1h-3.8l-4.5-11.5h-16.9l-4.5,11.5h-3.8L470.1,1373.1z M464.5,1395.7h14.6
			l-7.2-19L464.5,1395.7z"/>
		<path style="fill:#EFEFEF;" d="M559.6,1373.1h16.5c6.7,0,11,3.9,11,10.6c0,6.7-4.4,10.6-11,10.6h-12.9v15.9h-3.5V1373.1z
			 M563.1,1391.3h12.2c4.9,0,8.3-2.5,8.3-7.6c0-5.1-3.4-7.6-8.3-7.6h-12.2V1391.3z"/>
		<path style="fill:#EFEFEF;" d="M659.9,1373.1h17c6.1,0,11.3,3,11.3,9.7c0,4.7-2.4,8.5-7.2,9.5v0.1c4.8,0.6,6.2,4,6.5,8.4
			c0.2,2.5,0.2,7.6,1.7,9.5h-3.9c-0.9-1.5-0.9-4.2-1-5.8c-0.3-5.2-0.7-11-7.4-10.7h-13.4v16.5h-3.5V1373.1z M663.4,1390.8h13.2
			c4.3,0,8-2.7,8-7.2c0-4.5-2.7-7.4-8-7.4h-13.2V1390.8z"/>
		<path style="fill:#EFEFEF;" d="M777.7,1372.3c11.6,0,17.5,9.2,17.5,19.3c0,10.1-5.8,19.3-17.5,19.3c-11.7,0-17.5-9.2-17.5-19.3
			C760.1,1381.5,766,1372.3,777.7,1372.3z M777.7,1408c9.8,0,13.9-8.2,13.9-16.3s-4.2-16.3-13.9-16.3c-9.8,0-14,8.2-14,16.3
			S767.8,1408,777.7,1408z"/>
	</g>
</g>
<g>
	<path style="fill:#D31E44;" d="M101.9,2256.7c-42.5,0-77,34.5-77,77s34.5,77,77,77s77-34.5,77-77S144.4,2256.7,101.9,2256.7z
		 M101.9,2365.7c-17.7,0-32-14.3-32-32s14.3-32,32-32c17.7,0,32,14.3,32,32S119.6,2365.7,101.9,2365.7z"/>
	<path style="fill:#1D1D1D;" d="M196,2266.6c0,0,30.5,0.8,31.9,0.8s51.5,63.3,51.5,63.3l0.2-30v-34.1h39.9v137.1l-34.9,0.3
		l-47.7-58.8v58.3l-40.9,0.2V2266.6z"/>
	<path style="fill:#1D1D1D;" d="M526,2266.6c0,0,30.5,0.8,31.9,0.8c1.3,0,51.5,63.3,51.5,63.3l0.2-30v-34.1h39.9v137.1l-34.9,0.3
		l-47.7-58.8v58.3l-40.9,0.2V2266.6z"/>
	<path style="fill:#1D1D1D;" d="M341.6,2266.6h42.2v102h60.7v35.1H341.6V2266.6z"/>
	<path style="fill:#1D1D1D;" d="M462.5,2266.6h42.2v137.1h-42.2V2266.6z"/>
	<path style="fill:#1D1D1D;" d="M672.2,2266.6h113.5v35.1h-71.2v17.1h64.7v32.6h-64.7v17.1h73.3v35.1H672.2V2266.6z"/>
	
		<rect x="10.5" y="2200.8" transform="matrix(0.8714 -0.4906 0.4906 0.8714 -1079.7365 323.7357)" style="fill:#D31E44;" width="134.3" height="41.1"/>
	<g>
		<path style="fill:#1D1D1D;" d="M37.6,2448.1h23.6v3h-20v13.4H59v3H41.2v17.7h-3.5V2448.1z"/>
		<path style="fill:#1D1D1D;" d="M148.7,2447.3c11.6,0,17.5,9.2,17.5,19.3c0,10.1-5.8,19.3-17.5,19.3c-11.7,0-17.5-9.2-17.5-19.3
			C131.1,2456.6,136.9,2447.3,148.7,2447.3z M148.7,2483c9.8,0,13.9-8.2,13.9-16.3s-4.2-16.3-13.9-16.3c-9.8,0-14,8.2-14,16.3
			S138.8,2483,148.7,2483z"/>
		<path style="fill:#1D1D1D;" d="M239.2,2448.1h17c6.1,0,11.3,3,11.3,9.7c0,4.7-2.4,8.5-7.2,9.5v0.1c4.8,0.6,6.2,4,6.5,8.4
			c0.2,2.5,0.2,7.6,1.7,9.5h-3.9c-0.9-1.5-0.9-4.2-1-5.8c-0.3-5.2-0.7-11-7.4-10.7h-13.4v16.5h-3.5V2448.1z M242.7,2465.8h13.2
			c4.3,0,8-2.7,8-7.2c0-4.5-2.7-7.4-8-7.4h-13.2V2465.8z"/>
		<path style="fill:#1D1D1D;" d="M341.3,2448.1h5.2l12.8,32.6l12.8-32.6h5.2v37.1h-3.5v-32.1h-0.1l-12.7,32.1h-3.3l-12.7-32.1h-0.1
			v32.1h-3.5V2448.1z"/>
		<path style="fill:#1D1D1D;" d="M463.1,2448.1h4l14.6,37.1h-3.8l-4.5-11.5h-16.9l-4.5,11.5h-3.8L463.1,2448.1z M457.5,2470.7h14.6
			l-7.2-19L457.5,2470.7z"/>
		<path style="fill:#1D1D1D;" d="M552.6,2448.1h16.5c6.7,0,11,3.9,11,10.6c0,6.7-4.4,10.6-11,10.6h-12.9v15.9h-3.5V2448.1z
			 M556.1,2466.3h12.2c4.9,0,8.3-2.5,8.3-7.6c0-5.1-3.4-7.6-8.3-7.6h-12.2V2466.3z"/>
		<path style="fill:#1D1D1D;" d="M652.9,2448.1h17c6.1,0,11.3,3,11.3,9.7c0,4.7-2.4,8.5-7.2,9.5v0.1c4.8,0.6,6.2,4,6.5,8.4
			c0.2,2.5,0.2,7.6,1.7,9.5h-3.9c-0.9-1.5-0.9-4.2-1-5.8c-0.3-5.2-0.7-11-7.4-10.7h-13.4v16.5h-3.5V2448.1z M656.4,2465.8h13.2
			c4.3,0,8-2.7,8-7.2c0-4.5-2.7-7.4-8-7.4h-13.2V2465.8z"/>
		<path style="fill:#1D1D1D;" d="M770.7,2447.3c11.6,0,17.5,9.2,17.5,19.3c0,10.1-5.8,19.3-17.5,19.3c-11.7,0-17.5-9.2-17.5-19.3
			C753.1,2456.6,759,2447.3,770.7,2447.3z M770.7,2483c9.8,0,13.9-8.2,13.9-16.3s-4.2-16.3-13.9-16.3c-9.8,0-14,8.2-14,16.3
			S760.8,2483,770.7,2483z"/>
	</g>
</g>
<text transform="matrix(1 0 0 1 -605.1631 -600.8721)" style="font-family:'Helvetica'; font-size:72;">Communication générale</text>
<circle style="fill:#FFFFFF;stroke:#D31F44;stroke-width:20;stroke-miterlimit:10;" cx="-323.1" cy="412.4" r="117.7"/>
<rect x="67.4" y="374.3" transform="matrix(0.8714 -0.4906 0.4906 0.8714 -176.3819 116.7932)" style="fill:#D31F44;" width="134.3" height="41.1"/>
<polygon style="fill:#FFFFFF;stroke:#D31F44;stroke-width:20;stroke-miterlimit:10;" points="-110,309.1 -328,427.1 -536,307.1 
	-323,191.1 "/>
<rect x="-167.2" y="315.1" style="fill:#FFFFFF;" width="8" height="133"/>
<circle style="fill:#FFFFFF;" cx="-162.6" cy="412.5" r="15.4"/>
</svg>
